<svg xmlns="http://www.w3.org/2000/svg" width="144" viewBox="0 0 144 144" height="144" version="1.0"><defs><clipPath id="a"><path d="M 30.144531 44 L 75 44 L 75 124.949219 L 30.144531 124.949219 Z M 30.144531 44"/></clipPath><clipPath id="b"><path d="M 80 34 L 114.144531 34 L 114.144531 94 L 80 94 Z M 80 34"/></clipPath><clipPath id="c"><path d="M 50 19.199219 L 75 19.199219 L 75 64 L 50 64 Z M 50 19.199219"/></clipPath></defs><g clip-path="url(#a)"><path fill="#03D64B" d="M 30.207031 44.648438 C 31.65625 45.65625 32.703125 46.355469 33.722656 47.09375 C 41.734375 52.914062 49.746094 58.738281 57.753906 64.5625 C 62.609375 68.082031 66.929688 72.105469 69.953125 77.363281 C 72.417969 81.539062 73.941406 86.035156 74.523438 90.847656 C 74.734375 92.550781 74.855469 94.265625 74.882812 95.984375 C 74.917969 105.109375 74.882812 114.234375 74.882812 123.359375 L 74.882812 124.949219 C 74.382812 124.703125 73.902344 124.433594 73.433594 124.140625 C 63.917969 117.238281 54.351562 110.398438 44.914062 103.378906 C 36.640625 97.207031 31.78125 88.921875 30.546875 78.617188 C 30.335938 76.84375 30.230469 75.066406 30.226562 73.28125 C 30.207031 64.597656 30.207031 55.917969 30.207031 47.246094 Z M 30.207031 44.648438"/></g><g clip-path="url(#b)"><path fill="#03D64B" d="M 114.0625 34.289062 L 114.0625 41.816406 C 114.0625 46.730469 114.09375 51.644531 114.0625 56.554688 C 114 65.320312 110.304688 72.386719 103.445312 77.640625 C 96.457031 83.007812 89.210938 88.035156 82.074219 93.214844 C 81.820312 93.398438 81.550781 93.570312 81.078125 93.898438 C 80.972656 93.390625 80.902344 92.878906 80.867188 92.363281 C 80.867188 85.410156 80.757812 78.453125 80.890625 71.5 C 81.046875 63.175781 84.347656 56.164062 90.902344 51.046875 C 98.203125 45.351562 105.820312 40.054688 113.308594 34.59375 C 113.550781 34.472656 113.804688 34.371094 114.0625 34.289062 Z M 114.0625 34.289062"/></g><g clip-path="url(#c)"><path fill="#03D64B" d="M 74.765625 63.5 L 69.386719 59.582031 C 65.824219 56.988281 62.242188 54.421875 58.695312 51.804688 C 53.007812 47.613281 50.140625 41.984375 50.144531 34.914062 L 50.144531 21.332031 C 50.144531 20.710938 50.144531 20.089844 50.144531 19.199219 C 50.625 19.378906 51.085938 19.597656 51.53125 19.851562 C 56.496094 23.441406 61.5 26.996094 66.398438 30.675781 C 70.921875 34.070312 73.808594 38.535156 74.664062 44.195312 C 74.773438 44.757812 74.84375 45.324219 74.871094 45.894531 C 74.894531 51.320312 74.902344 56.742188 74.902344 62.160156 C 74.902344 62.46875 74.839844 62.773438 74.765625 63.5 Z M 74.765625 63.5"/></g></svg>